<?xml version="1.0" encoding="UTF-8"?><svg id="Layer_2" xmlns="http://www.w3.org/2000/svg" xmlns:xlink="http://www.w3.org/1999/xlink" viewBox="0 0 226.16 120.01"><defs><style>.cls-1{fill:url(#linear-gradient-2);}.cls-2{fill:#c42649;}.cls-3{fill:#82e782;}.cls-4{fill:#83e883;}.cls-5{fill:#fffffe;}.cls-6{fill:#f6305c;}.cls-7{fill:url(#linear-gradient);}.cls-8{fill:#46a093;}.cls-9{fill:#308b6f;}</style><linearGradient id="linear-gradient" x1="-7.3" y1="126.2" x2="-7.3" y2="123.06" gradientTransform="translate(638.43 4822.33) scale(72.01 -38.21)" gradientUnits="userSpaceOnUse"><stop offset="0" stop-color="#a5ffaf"/><stop offset="1" stop-color="#64e178"/></linearGradient><linearGradient id="linear-gradient-2" x1="-7.29" y1="121" x2="-7.29" y2="124.14" gradientTransform="translate(638.39 3160.63) scale(72.01 -25.46)" gradientUnits="userSpaceOnUse"><stop offset="0" stop-color="#23c386"/><stop offset="1" stop-color="#139e83"/></linearGradient></defs><g id="Layer_1-2"><g><path class="cls-7" d="M226.15,0c-28.98,20.28-48.64,15.78-56.86,19.95-4.22,2.14-6.5,5.62-7.71,8.51-8.18-12.56-22.76-20.59-46.36-20.59-.21,0-.42,0-.62,0-.2,0-.41,0-.62,0-.3,0-.6,0-.9,0-.3,0-.6,0-.9,0-.21,0-.42,0-.62,0-.2,0-.41,0-.62,0-23.6,0-38.18,8.04-46.35,20.59-1.21-2.88-3.49-6.36-7.71-8.51C48.65,15.78,28.99,20.28,.01,0,.01,0-.29,4.22,2.02,10.46c2.31,6.24,10.8,19.3,12.51,34.88,.22,2.04,.6,4.31,1.15,6.66l5.74,.48-4.31,4.59c1.99,5.94,5.19,11.97,10.08,16.35l10.02-5.29-3.68,9.47c5.79,2.66,13.18,3.34,22.58,.66-.52,1.78-.95,3.85-1,5.91-.15,6.25-3.13,19.97,33.27,25.96,0,0,5.32,1.17,7.6,6.63,0,0,.54,3.07,16.86,3.25h0s.06,0,.06,0h.18s.24,0,.24,0h0c16.33-.18,16.86-3.25,16.86-3.25,2.27-5.46,7.6-6.63,7.6-6.63,36.39-5.98,33.42-19.71,33.27-25.96-.05-2.06-.48-4.13-1-5.91,4.8,1.37,9.07,1.86,12.88,1.66l-.53-6.91,3.79,6.56,.09-.02,.04-5.58,3.62,4.69c6.5-2.1,11.2-6.55,14.55-11.81l-6.09-6.63,8.87,1.48c1.97-4.36,3.2-8.92,3.9-12.97l-6.58-2.49,7.01-.45s0-.04,0-.06l-4.48-2.44,4.88-.54c2.29-14.43,9.97-26.39,12.15-32.28,2.31-6.24,2.01-10.46,2.01-10.46"/><path class="cls-1" d="M226.12,.02l.02-.02s.3,4.22-2.01,10.46c-2.18,5.89-9.86,17.86-12.15,32.28l-4.88,.54,4.48,2.44v.05s-7.01,.45-7.01,.45l6.58,2.49c-.7,4.05-1.93,8.61-3.9,12.97l-8.87-1.48,6.09,6.63c-3.35,5.26-8.05,9.7-14.55,11.81l-3.62-4.69-.04,5.58-.09,.02-3.79-6.56,.53,6.91c-3.8,.2-8.05-.29-12.83-1.65-2.02-4.48-3.68-9.69-3.96-12-1.96-16.07-.34-20.7-.34-20.7,3.65-12.92,36.53-18.71,47.69-28.16,7.84-6.63,11.28-13.75,12.62-17.39ZM58.72,71.35c-1.05,2.5-.63,2.46-2.65,6.91-9.38,2.67-16.76,1.99-22.54-.67l3.68-9.47-10.02,5.29c-4.89-4.38-8.09-10.41-10.08-16.35l4.31-4.58-5.74-.48c-.51-2.2-.9-4.42-1.15-6.66C12.82,29.76,4.33,16.7,2.02,10.46-.29,4.22,.01,0,.01,0L.05,.03c.45,1.21,2.75,6.96,7.29,12.14,5.11,5.82,9.54,8.58,14.34,10.64,4.8,2.06,14,5.95,16.71,6.94,2.71,.99,13.46,5.69,17.22,9.26,3.75,3.57,5.25,5.27,5.38,11.7,.14,6.43-.51,10.8-.58,12.14-.07,1.35-.64,5.98-1.69,8.49h0Z"/><path class="cls-9" d="M130.19,59.31l21.01-7.2c1.43-.56,2.88-1.05,4.35-1.49l.1-.04h0c1.6-.46,3.24-.82,4.31-.77,2.69,.15,3.1,2.94,3.1,2.94,0,0-2.06-1.81-6.23,.08,.49,1.6,.45,3.44,.04,5.35-1.47,6.97-7.19,12.89-16.07,12.89-6.42,0-11.95-3.02-14.52-7.38-3.04-.34-7.17-.7-6.44-.92,.72-.21,6.87-2.29,10.35-3.48Z"/><path class="cls-2" d="M156.46,55.44s-1.01-1.79-4.32-.99c-3.31,.8-25.16,8.57-25.16,8.57,0,0,3.47,8.05,15.36,7.25,12.42-.83,15.06-13.57,14.12-14.83"/><path class="cls-9" d="M112.43,100.02c-28.5-.83-41.67-13.38-43.68-15.48-.35-.1-.68-.23-1-.4-1.7-.9-2.73-2.11-3.05-3.58-.55-2.5,1.19-4.79,1.27-4.89l.44-.62s-1,3.28-.61,5.06c.22,.99,1.46,1.95,2.72,2.62,2.13,1.13,7.72,.38,14.8-.58,8-1.08,18.79-2.53,30.61-2.1,11.81-.43,22.61,1.02,30.6,2.1,7.08,.96,12.67,1.71,14.8,.58,1.26-.67,2.5-1.63,2.72-2.62,.4-1.78-.6-5.04-.61-5.06l.44,.62c.07,.09,1.82,2.38,1.27,4.89-.32,1.47-1.35,2.68-3.05,3.58-.32,.17-.66,.3-1,.4-2.02,2.11-15.19,14.65-43.69,15.48v.04c-.5,0-1,0-1.49,0-.5,0-1,0-1.5,0v-.04h0Z"/><path class="cls-5" d="M111.46,98.36c-2.64-.18-5.26-.47-7.87-.85-.37-.37-1.09-1.2-.96-2.02,.18-1.1,2.13-4.52,2.13-4.52l.02-.08,3.29-5.45,3.21,6.49c.78,1.85,2.04,5.54,.16,6.43h0Zm-11-1.36c-3.05-.54-6.07-1.23-9.04-2.09-.19-.59-.41-2.26,1.07-5.73l.18-.42,1.82-3.7,3.74,5.61c1.07,1.77,3.01,5.26,2.24,6.33Zm-11.98-3.01c-2.56-.85-5.06-1.89-7.47-3.11-.34-1.28,.76-3.33,1.49-4.48l-2.58,3.87,3.17-4.73,3.33,4.18c.69,.98,2.09,3.14,2.07,4.27h0Zm-14.24-9.38c2.31-.14,4.61-.37,6.89-.69,.19,1.47-1.52,4.51-2.14,5.55l-.14,.21c-2.09-1.09-3.72-2.89-4.62-5.08h0Zm8.85-1c2.13-.32,5.64-.72,9.74-1.08,.57,.98-.75,4.41-1.46,6.1l-1.63,3.33h0s0,0,0,0l-6.65-8.35h0Zm13.63-1.4c3.1-.22,6.36-.41,9.51-.49,1.34,1.14-.19,4.54-.79,5.73l-3.77,6.23-2.37-3.56c-1.33-2.11-3.87-6.56-2.58-7.91h0Zm13.93-.55c1.03,0,2.02,.03,2.97,.06,1-.04,1.99-.05,2.98-.06,.37,.39,.75,.91,.89,1.52,.31,1.29-1.18,5.29-1.18,5.29h0s-2.69,5.45-2.69,5.45l-2.69-5.43v-.02s-1.49-3.99-1.18-5.29c.14-.61,.53-1.13,.9-1.52Zm10.38,.06c3.14,.09,6.41,.27,9.51,.5,1.25,1.32-1.13,5.59-2.48,7.75l-2.48,3.72-3.73-6.17c-.57-1.13-2.18-4.63-.82-5.79Zm13.4,.81c3.03,.27,5.75,.56,7.81,.82,.44,2.05-4.73,8.61-4.73,8.61l-1.59-3.24c-.7-1.66-2.07-5.19-1.49-6.19h0Zm11.69,1.39c2.58,.38,5.18,.58,6.9,.69-.89,2.18-2.53,3.98-4.62,5.07l-.09-.12c-.56-.95-2.38-4.13-2.2-5.64h0Zm.13,6.96c-2.41,1.21-4.91,2.25-7.47,3.11-.02-1.16,1.44-3.38,2.11-4.33l3.28-4.12,.68,1.01c.73,1.17,1.73,3.1,1.4,4.33Zm-10.41,4.03c-3.11,.9-6.2,1.58-9.04,2.09-.79-1.1,1.25-4.72,2.31-6.44l3.66-5.5,1.86,3.8,.14,.33c1.48,3.46,1.25,5.14,1.07,5.73h0Zm-12.17,2.6c-3.21,.47-5.95,.72-7.87,.85-1.9-.9-.58-4.7,.2-6.52l3.17-6.4,3.3,5.47,.02,.06s1.95,3.42,2.13,4.52c.13,.82-.58,1.64-.95,2.02h0Z"/><path class="cls-8" d="M111.85,17.41c1.68,1.06-1.33,2.13-6.25,2.95-4.93,.83-10.59-1.53-10.59-2.95s6.85-3.9,9.86-4.26c3.01-.36,6.98,4.26,6.98,4.26h0Zm15.66-3.43c1.74,.24,2.73,1.34,1.74,2.2-.99,.85-4.1,2.2-7.7,1.47-3.6-.74-4.84-2.56-3.23-3.66,1.61-1.1,9.19,0,9.19,0h0Zm-6.04,6.8c4.6-.27,.95,4.79-1.76,4.92-2.71,.14-5.95-.4-5.41-2.13,.54-1.73,7.17-2.79,7.17-2.79h0Zm-13.67,3.97c1.39,1.91-4,1.37-4.77,.64-.77-.74-.21-1.84,1.05-2.19,1.27-.34,3.71,1.55,3.71,1.55Zm32.73-6.7c1.47,.64-.34,1.22-1.54,1.03-1.2-.19-5.85-1.54-3.96-2.18,1.89-.64,5.5,1.14,5.5,1.14Zm-52.51,.11c.88-.07,2.84-.33,1.69,.6-1.15,.93-4.12,2.93-5.54,2.93s-1.15-1.26,.07-2.26c1.22-1,3.79-1.26,3.79-1.26Z"/><path class="cls-9" d="M124.49,65.17s1.57,10.34,20.44,10.44c0,0-15.73-1.15-20.44-10.44m-21.97,0s-1.57,10.34-20.44,10.44c0,0,15.73-1.15,20.44-10.44"/><path class="cls-6" d="M145.72,57.8s-14.11,3.39-13.6,5.88c.51,2.49,4.98,4.59,9.24,3.69,4.26-.89,6.9-5.59,7.71-6.98,.81-1.4,1.12-4.19-3.35-2.59"/><path class="cls-5" d="M136.99,60.5s-4.56,1.1-4.67,3.09c-.1,1.99,6.7-2.3,8.42-2.99,1.73-.7,.11-1.4-3.75-.1"/><path class="cls-9" d="M100.73,63.71c-2.58,4.36-8.11,7.38-14.53,7.38-8.87,0-14.6-5.92-16.07-12.89-.4-1.91-.44-3.75,.05-5.35-4.18-1.89-6.23-.08-6.23-.08,0,0,.4-2.79,3.09-2.94,1.07-.06,2.72,.31,4.31,.77h0s.11,.03,.11,.03c1.89,.55,3.69,1.23,4.34,1.49l21.02,7.2c3.48,1.18,9.63,3.27,10.35,3.48,.72,.22-3.4,.58-6.45,.92Z"/><path class="cls-2" d="M70.56,55.44s1.01-1.79,4.32-.99c3.31,.8,25.16,8.57,25.16,8.57,0,0-3.47,8.05-15.35,7.25-12.42-.83-15.07-13.57-14.13-14.83"/><path class="cls-6" d="M81.3,57.8s14.11,3.39,13.6,5.88c-.51,2.49-4.97,4.59-9.23,3.69-4.26-.89-6.9-5.59-7.71-6.98-.81-1.4-1.12-4.19,3.35-2.59"/><path class="cls-5" d="M90.02,60.5s4.57,1.1,4.67,3.09c.1,1.99-6.7-2.3-8.42-2.99-1.72-.7-.1-1.4,3.75-.1"/><path class="cls-4" d="M71.58,64.69s11.38,3.64,20.16,6.32c0,0-10.42,4.32-20.16-6.32"/><path class="cls-3" d="M155.86,64.69s-11.38,3.64-20.16,6.32c0,0,10.42,4.32,20.16-6.32"/></g></g></svg>