<?xml version="1.0" encoding="UTF-8"?><svg id="Layer_2" xmlns="http://www.w3.org/2000/svg" viewBox="0 0 276.5 235.24"><defs><style>.cls-1{fill:#f06669;}.cls-2{fill:#ffd05d;}.cls-3{fill:#7cc4e8;}.cls-4{fill:#62bbe8;}.cls-5{fill:#303030;}.cls-6{fill:#fdc453;}.cls-7{fill:#ffd77f;}.cls-8{fill:#695342;}</style></defs><g id="Object"><g><g><g><circle class="cls-2" cx="138.25" cy="117.62" r="117.62"/><path class="cls-6" d="M199.79,17.23c11.71,18.29,18.5,40.03,18.5,63.36,0,64.96-52.66,117.62-117.62,117.62-22.56,0-43.63-6.36-61.54-17.37,20.9,32.63,57.48,54.26,99.11,54.26,64.96,0,117.62-52.66,117.62-117.62,0-42.4-22.44-79.55-56.08-100.25Z"/><path class="cls-7" d="M36.62,130.03c0-60.31,48.89-109.2,109.2-109.2,35.25,0,66.6,16.71,86.56,42.63-18.86-32.74-54.2-54.78-94.69-54.78-60.31,0-109.2,48.89-109.2,109.2,0,25.06,8.45,48.14,22.64,66.57-9.23-16.02-14.51-34.61-14.51-54.43Z"/></g><g><path class="cls-5" d="M74.81,119.52c-1.48,0-2.95-.66-3.94-1.92-1.69-2.17-1.3-5.3,.87-7l16.96-13.22-17.54-10.31c-2.37-1.4-3.17-4.45-1.77-6.83,1.4-2.37,4.45-3.17,6.82-1.77l23.86,14.03c1.42,.84,2.34,2.33,2.45,3.97,.11,1.65-.61,3.24-1.91,4.26l-22.75,17.73c-.91,.71-1.99,1.05-3.06,1.05Z"/><path class="cls-5" d="M201.7,119.52c-1.07,0-2.15-.34-3.06-1.05l-22.75-17.73c-1.3-1.01-2.02-2.61-1.91-4.26,.11-1.65,1.02-3.14,2.45-3.97l23.86-14.03c2.37-1.39,5.43-.6,6.82,1.77,1.4,2.37,.6,5.43-1.77,6.83l-17.53,10.31,16.96,13.22c2.17,1.69,2.56,4.83,.87,7-.98,1.26-2.45,1.92-3.94,1.92Z"/></g></g><g><g><path class="cls-3" d="M212.57,114.21c-8.7,52.21,6.59,69.62,6.59,69.62,8.99,14.55,28.08,19.07,42.63,10.08,14.55-8.99,19.07-28.08,10.08-42.63,0,0-8.72-21.47-59.3-37.07Z"/><path class="cls-4" d="M236.82,197.27c8.13,2.38,17.21,1.43,24.98-3.37,14.55-8.99,19.07-28.08,10.08-42.63,0,0-3.68-9.02-20.03-19.62,15.86,37.4-1.76,56.87-15.03,65.62Z"/></g><g><path class="cls-3" d="M62.66,113.45C12.46,130.23,4.25,151.91,4.25,151.91c-8.64,14.76-3.68,33.74,11.08,42.38,14.76,8.64,33.74,3.68,42.38-11.08,0,0,14.88-17.77,4.95-69.76Z"/><path class="cls-4" d="M.64,173.8c1.71,8.3,6.8,15.87,14.69,20.49,14.76,8.64,33.74,3.68,42.38-11.08,0,0,6.25-7.48,7.94-26.89-25.6,31.54-51.07,25.1-65.01,17.48Z"/></g></g><g><path class="cls-8" d="M70.87,133.2c3.82,33.84,32.52,60.14,67.38,60.14s63.56-26.3,67.38-60.14H70.87Z"/><path class="cls-1" d="M91.71,174.82c12.14,11.47,28.51,18.52,46.54,18.52s32.99-6.45,44.95-17.06l-.62-1.46c-45.25-22.06-90.26-.31-90.87,0Z"/></g></g></g></svg>